<svg width="32" height="32" viewBox="0 0 32 32" fill="none" xmlns="http://www.w3.org/2000/svg">
<circle cx="16" cy="16" r="15.5" fill="white" stroke="#00A8A3"/>
<path fill-rule="evenodd" clip-rule="evenodd" d="M11.2995 9.59512C12.2125 8.6873 13.7158 8.84889 14.4803 9.87008L15.426 11.1334C16.0481 11.9643 15.9932 13.1256 15.2548 13.8598L15.0757 14.0379C15.0679 14.0606 15.0489 14.132 15.07 14.2677C15.1174 14.5733 15.3726 15.2216 16.444 16.2869C17.515 17.3519 18.1679 17.6068 18.4779 17.6544C18.6183 17.6759 18.6918 17.6558 18.7145 17.6479L19.0205 17.3436C19.677 16.6909 20.6856 16.5689 21.4983 17.0107L22.9312 17.7897C24.1582 18.4567 24.4681 20.1244 23.4629 21.124L22.3975 22.1833C22.0618 22.5171 21.6104 22.7954 21.0595 22.8468C19.7027 22.9733 16.539 22.8119 13.2149 19.5067C10.1115 16.4209 9.51596 13.7299 9.44061 12.404C9.40251 11.7336 9.71932 11.1663 10.1223 10.7656L11.2995 9.59512ZM13.5797 10.5443C13.1997 10.0367 12.4915 9.99638 12.0927 10.3929L10.9155 11.5634C10.6681 11.8094 10.549 12.0806 10.5638 12.3402C10.6237 13.3936 11.1046 15.8219 14.0082 18.7089C17.0543 21.7377 19.8676 21.828 20.955 21.7267C21.1772 21.706 21.3981 21.5905 21.6043 21.3856L22.6697 20.3262C23.1028 19.8956 23.0072 19.1115 22.3939 18.7781L20.961 17.9991C20.5653 17.784 20.1018 17.855 19.8138 18.1414L19.4722 18.481L19.0756 18.0821C19.4722 18.481 19.4717 18.4816 19.4711 18.4821L19.47 18.4832L19.4677 18.4854L19.4629 18.4901L19.4519 18.5003C19.444 18.5075 19.435 18.5154 19.4248 18.5238C19.4044 18.5407 19.3794 18.5598 19.3494 18.5799C19.2894 18.6201 19.2101 18.6639 19.1104 18.701C18.9073 18.7767 18.6394 18.8173 18.3073 18.7663C17.6572 18.6666 16.796 18.2234 15.6508 17.0847C14.5059 15.9463 14.059 15.0891 13.9583 14.4402C13.9068 14.1083 13.9479 13.8403 14.0245 13.6371C14.062 13.5374 14.1062 13.4582 14.1468 13.3983C14.1671 13.3684 14.1863 13.3434 14.2033 13.3231C14.2119 13.313 14.2198 13.304 14.227 13.2961L14.2373 13.2852L14.242 13.2804L14.2443 13.2781L14.2454 13.277C14.2459 13.2765 14.2465 13.2759 14.6431 13.6748L14.2465 13.2759L14.4616 13.062C14.783 12.7424 14.828 12.2118 14.5254 11.8076L13.5797 10.5443Z" fill="#00A8A3"/>
</svg>
