<svg width="84" height="21" viewBox="0 0 84 21" fill="none" xmlns="http://www.w3.org/2000/svg">
<path d="M1.792 20C1.624 20 1.512 19.888 1.512 19.72V0.679998C1.512 0.511999 1.624 0.399999 1.792 0.399999H10.668C10.836 0.399999 10.948 0.511999 10.948 0.679998V3.592C10.948 3.76 10.836 3.872 10.668 3.872H5.768V8.184H9.352C9.52 8.184 9.632 8.296 9.632 8.464V11.376C9.632 11.544 9.52 11.656 9.352 11.656H5.768V19.72C5.768 19.888 5.656 20 5.488 20H1.792ZM13.4951 20C13.3271 20 13.2151 19.888 13.2151 19.72V0.679998C13.2151 0.511999 13.3271 0.399999 13.4951 0.399999H22.3711C22.5391 0.399999 22.6511 0.511999 22.6511 0.679998V3.592C22.6511 3.76 22.5391 3.872 22.3711 3.872H17.4711V8.184H21.0551C21.2231 8.184 21.3351 8.296 21.3351 8.464V11.376C21.3351 11.544 21.2231 11.656 21.0551 11.656H17.4711V19.72C17.4711 19.888 17.3591 20 17.1911 20H13.4951Z" fill="white"/>
<path d="M31.1714 6.79055C29.93 5.67651 28.8426 6.71901 27.6936 6.8621C27.8065 3.62218 31.356 0.617334 35.0595 0.504908C38.845 0.382261 42.569 3.336 42.887 6.84166C41.738 6.79055 40.6403 5.63563 39.399 6.81099C38.7937 4.47049 37.4703 3.00895 35.1108 3.10093C32.9462 3.18269 31.7048 4.56247 31.1816 6.80077L31.1714 6.79055Z" fill="white"/>
<path d="M35.846 16.7149C36.4 14.8854 36.954 13.056 37.5182 11.2265C37.7952 10.3169 38.0722 9.41745 38.3595 8.50782C38.4723 8.12966 38.6262 7.82304 39.2828 8.099C38.4313 10.8994 37.5695 13.7101 36.6462 16.7149C36.8514 16.531 36.9437 16.4799 36.995 16.4083C37.0771 16.3061 37.1284 16.1835 37.2002 16.071C38.7185 13.5874 40.2368 11.1038 41.7552 8.62024C42.0014 8.22164 42.2065 7.71062 42.9144 8.12966C42.7503 8.43628 42.6066 8.72245 42.4425 8.98819C40.4728 12.1872 38.4928 15.3965 36.5129 18.5853C35.764 19.8015 34.7791 19.8015 34.0302 18.5955C31.999 15.3147 29.978 12.0339 27.9467 8.74289C27.8338 8.55892 27.7415 8.35451 27.6184 8.11944C28.3058 7.71062 28.5315 8.2012 28.7777 8.5998C30.2755 11.0527 31.7733 13.5159 33.2711 15.9688C33.4249 16.2141 33.5788 16.4594 33.8661 16.6638C32.9941 13.8225 32.1221 10.971 31.2501 8.11944C31.999 7.72084 32.1015 8.22164 32.2349 8.66113C32.8915 10.8177 33.5378 12.9742 34.1944 15.1307C34.3688 15.6929 34.5432 16.2448 34.8407 16.8069C34.8612 16.5514 34.9022 16.3061 34.9022 16.0506C34.9022 13.6692 34.8817 11.2878 34.8714 8.8962C34.8714 8.70201 34.8201 8.48738 34.8714 8.31363C34.9227 8.17054 35.1177 7.97635 35.2408 7.97635C35.3741 7.97635 35.569 8.17054 35.6203 8.31363C35.6819 8.51804 35.6409 8.76333 35.6409 8.99841C35.6306 11.3798 35.6203 13.7612 35.6101 16.1528C35.6101 16.3265 35.6511 16.5105 35.6614 16.6843L35.8153 16.7047L35.846 16.7149Z" fill="white"/>
<path d="M35.6946 3.82544C37.336 3.97875 38.4645 5.13367 38.485 6.66676C37.5822 6.20683 36.6794 6.10462 35.6946 6.75874V3.83566V3.82544Z" fill="white"/>
<path d="M34.9352 3.81934C34.9352 4.23838 34.9352 4.58588 34.9352 4.9436C34.9352 5.49551 34.9352 6.0372 34.9352 6.80374C33.9094 6.11896 32.9758 6.17006 32.0422 6.69131C32.1346 5.07646 33.2118 3.98286 34.9352 3.81934Z" fill="white"/>
<path d="M49.6151 19.2905V10.5212H45.8091C47.1838 7.04623 48.6508 3.8472 50.1794 0.637939C50.4461 3.54058 50.3025 6.433 50.4051 9.45828H54.2829C52.7851 12.8924 51.3694 16.1323 49.9639 19.362L49.6151 19.3007V19.2905Z" fill="white"/>
<path d="M62.8011 20.168C60.5611 20.168 59.3291 18.936 59.3291 16.696V3.704C59.3291 1.464 60.5611 0.231999 62.8011 0.231999H66.4971C68.7371 0.231999 69.9691 1.464 69.9691 3.704V7.54C69.9691 7.708 69.8571 7.82 69.6891 7.82H66.1051C65.9371 7.82 65.8251 7.708 65.8251 7.54V4.712C65.8251 3.9 65.4051 3.424 64.6771 3.424C63.9491 3.424 63.5291 3.9 63.5291 4.712V15.688C63.5291 16.5 63.9491 16.976 64.6771 16.976C65.4051 16.976 65.8251 16.5 65.8251 15.688V12.356C65.8251 12.188 65.9371 12.076 66.1051 12.076H69.6891C69.8571 12.076 69.9691 12.188 69.9691 12.356V16.696C69.9691 18.936 68.7371 20.168 66.4971 20.168H62.8011ZM75.9795 20.168C73.7395 20.168 72.5075 18.936 72.5075 16.696V3.704C72.5075 1.464 73.7395 0.231999 75.9795 0.231999H79.3395C81.6075 0.231999 82.8675 1.464 82.8675 3.704V6.028C82.8675 6.196 82.7555 6.308 82.5875 6.308H79.1715C79.0035 6.308 78.8915 6.196 78.8915 6.028V4.684C78.8915 3.9 78.4715 3.396 77.7715 3.396C77.0715 3.396 76.6515 3.9 76.6515 4.684V9.052C77.2955 7.96 78.3875 7.372 79.8155 7.372C81.7475 7.372 82.9795 8.688 82.9795 10.788V16.696C82.9795 18.936 81.7195 20.168 79.4515 20.168H75.9795ZM77.7715 17.032C78.4715 17.032 78.8915 16.528 78.8915 15.744V11.852C78.8915 11.068 78.4715 10.564 77.7715 10.564C77.0715 10.564 76.6515 11.068 76.6515 11.852V15.744C76.6515 16.528 77.0715 17.032 77.7715 17.032Z" fill="white"/>
</svg>
