<svg width="90" height="23" viewBox="0 0 90 23" fill="none" xmlns="http://www.w3.org/2000/svg">
<path d="M0 21.094V0H9.52316V3.86183H4.26395V8.18291H8.51742V12.0865H4.23252V21.094H0Z" fill="black"/>
<path d="M20.2747 12.1282H16.0631V21.1148H11.8516V0H21.3643V3.84096H16.1469V8.10985H20.2747V12.1282Z" fill="black"/>
<path d="M47.67 20.0717V11.1164H43.7832C45.1871 7.56768 46.6852 4.30078 48.2462 1.02344C48.5186 3.98766 48.3719 6.94144 48.4767 10.0309H52.4368C50.9072 13.5379 49.4615 16.8465 48.0262 20.1447L47.67 20.0821V20.0717Z" fill="black"/>
<path d="M28.9383 7.33694C27.6706 6.19927 26.5601 7.26388 25.3867 7.41001C25.502 4.10135 29.1268 1.03276 32.9089 0.91795C36.7747 0.792702 40.5777 3.80911 40.9025 7.38913C39.7291 7.33694 38.6081 6.15752 37.3404 7.35782C36.7223 4.96766 35.3708 3.47511 32.9612 3.56905C30.7507 3.65255 29.483 5.06159 28.9487 7.34738L28.9383 7.33694Z" fill="black"/>
<path d="M33.7127 17.4742C34.2785 15.6059 34.8442 13.7376 35.4204 11.8693C35.7033 10.9404 35.9861 10.0219 36.2795 9.09293C36.3947 8.70675 36.5519 8.39363 37.2224 8.67544C36.3528 11.5353 35.4728 14.4056 34.5299 17.4742C34.7394 17.2863 34.8337 17.2341 34.8861 17.161C34.9699 17.0567 35.0223 16.9314 35.0956 16.8166C36.6462 14.2803 38.1967 11.744 39.7472 9.20774C39.9986 8.80069 40.2082 8.27882 40.931 8.70675C40.7634 9.01987 40.6168 9.31212 40.4491 9.58349C38.4376 12.8504 36.4157 16.1277 34.3937 19.3842C33.6289 20.6262 32.6232 20.6262 31.8584 19.3946C29.784 16.0442 27.7201 12.6938 25.6458 9.33299C25.5306 9.14512 25.4363 8.93637 25.3105 8.69631C26.0125 8.27882 26.243 8.77981 26.4944 9.18687C28.024 11.6918 29.5535 14.2073 31.0831 16.7122C31.2403 16.9627 31.3974 17.2132 31.6908 17.422C30.8002 14.5204 29.9097 11.6083 29.0192 8.69631C29.784 8.28926 29.8888 8.80069 30.025 9.2495C30.6955 11.4518 31.3555 13.6541 32.026 15.8564C32.2041 16.4304 32.3822 16.994 32.686 17.5681C32.707 17.3072 32.7489 17.0567 32.7489 16.7957C32.7489 14.3638 32.7279 11.9319 32.7175 9.48956C32.7175 9.29124 32.6651 9.07206 32.7175 8.89462C32.7698 8.7485 32.9689 8.55019 33.0946 8.55019C33.2308 8.55019 33.4299 8.7485 33.4822 8.89462C33.5451 9.10337 33.5032 9.35387 33.5032 9.59393C33.4927 12.0258 33.4822 14.4578 33.4718 16.9001C33.4718 17.0775 33.5137 17.2654 33.5241 17.4428L33.6813 17.4637L33.7127 17.4742Z" fill="black"/>
<path d="M33.5586 4.3125C35.2348 4.46906 36.3873 5.64849 36.4082 7.21409C35.4863 6.74441 34.5643 6.64004 33.5586 7.30803V4.32294V4.3125Z" fill="black"/>
<path d="M32.7825 4.29688C32.7825 4.72481 32.7825 5.07968 32.7825 5.44499C32.7825 6.00861 32.7825 6.56179 32.7825 7.34459C31.7349 6.64529 30.7815 6.69747 29.8281 7.22978C29.9224 5.58067 31.0225 4.46387 32.7825 4.29688Z" fill="black"/>
<path d="M64.1967 21.7057C62.4194 21.7057 60.9877 21.1824 59.9016 20.1358C58.8352 19.0694 58.302 17.6476 58.302 15.8703V6.27305C58.302 4.51553 58.8352 3.11345 59.9016 2.06684C60.9877 1.02022 62.4194 0.496913 64.1967 0.496913C65.9937 0.496913 67.4254 1.02022 68.4918 2.06684C69.5779 3.11345 70.1209 4.51553 70.1209 6.27305V6.59889C70.1209 6.69763 70.0814 6.78649 70.0024 6.86548C69.9432 6.92472 69.8642 6.95434 69.7655 6.95434L66.2998 7.10245C66.0628 7.10245 65.9443 6.99384 65.9443 6.77661V6.00646C65.9443 5.43379 65.7863 4.96972 65.4704 4.61427C65.1544 4.25881 64.7299 4.08108 64.1967 4.08108C63.6832 4.08108 63.2685 4.25881 62.9526 4.61427C62.6366 4.96972 62.4786 5.43379 62.4786 6.00646V16.2258C62.4786 16.7985 62.6366 17.2625 62.9526 17.618C63.2685 17.9537 63.6832 18.1215 64.1967 18.1215C64.7299 18.1215 65.1544 17.9537 65.4704 17.618C65.7863 17.2625 65.9443 16.7985 65.9443 16.2258V15.426C65.9443 15.3273 65.9739 15.2483 66.0332 15.189C66.1122 15.1101 66.201 15.0706 66.2998 15.0706L69.7655 15.2187C69.8642 15.2187 69.9432 15.2582 70.0024 15.3372C70.0814 15.3964 70.1209 15.4754 70.1209 15.5741V15.8703C70.1209 17.6476 69.5779 19.0694 68.4918 20.1358C67.4056 21.1824 65.9739 21.7057 64.1967 21.7057ZM83.2688 13.2637C83.3478 13.7376 83.3873 14.3202 83.3873 15.0113C83.3873 15.4458 83.3676 16.0382 83.3281 16.7886C83.2688 18.3486 82.7356 19.5631 81.7285 20.432C80.7214 21.2811 79.3786 21.7057 77.7 21.7057C76.1202 21.7057 74.8366 21.3108 73.8493 20.5209C72.8816 19.731 72.309 18.556 72.1312 16.9959C72.0522 16.5812 72.0127 16.0382 72.0127 15.3668L71.9535 5.79911C71.9535 4.17982 72.4669 2.89623 73.4938 1.94835C74.5404 0.980726 75.9227 0.496913 77.6408 0.496913C79.2403 0.496913 80.5437 0.980726 81.5508 1.94835C82.5777 2.91598 83.0911 4.19957 83.0911 5.79911V6.68775C83.0911 6.78649 83.0516 6.87535 82.9726 6.95434C82.9134 7.01359 82.8344 7.04321 82.7356 7.04321H79.2699C79.1712 7.04321 79.0823 7.01359 79.0034 6.95434C78.9441 6.87535 78.9145 6.78649 78.9145 6.68775V6.03608C78.9145 5.5029 78.7861 5.05858 78.5294 4.70313C78.2727 4.34767 77.9765 4.16995 77.6408 4.16995C77.2063 4.16995 76.8509 4.34767 76.5744 4.70313C76.2979 5.03884 76.1597 5.48315 76.1597 6.03608V9.02783C76.1597 9.08707 76.1795 9.12657 76.219 9.14631C76.2585 9.14631 76.2979 9.12657 76.3374 9.08707C76.9891 8.53414 77.7296 8.25768 78.559 8.25768C79.9414 8.25768 81.0472 8.71187 81.8766 9.62025C82.7258 10.5286 83.1898 11.7431 83.2688 13.2637ZM79.0922 16.4628C79.1317 15.5149 79.1515 14.9323 79.1515 14.7151C79.1515 14.1819 79.112 13.5698 79.033 12.8786C78.9737 12.4244 78.8256 12.0689 78.5887 11.8122C78.3517 11.5555 78.0456 11.4271 77.6704 11.4271C77.2755 11.4271 76.9496 11.5654 76.6929 11.8418C76.4559 12.0986 76.3078 12.4639 76.2486 12.9378C76.1893 13.708 76.1597 14.3004 76.1597 14.7151C76.1597 15.189 76.1893 15.8012 76.2486 16.5516C76.3078 17.0651 76.4559 17.46 76.6929 17.7365C76.9496 18.0129 77.2755 18.1512 77.6704 18.1512C78.0654 18.1512 78.3813 18.0031 78.6183 17.7069C78.875 17.4106 79.033 16.9959 79.0922 16.4628Z" fill="black"/>
</svg>
