<svg width="79" height="21" viewBox="0 0 79 21" fill="none" xmlns="http://www.w3.org/2000/svg">
<path d="M1.792 20C1.624 20 1.512 19.888 1.512 19.72V0.679998C1.512 0.511999 1.624 0.399999 1.792 0.399999H10.668C10.836 0.399999 10.948 0.511999 10.948 0.679998V3.592C10.948 3.76 10.836 3.872 10.668 3.872H5.768V8.184H9.352C9.52 8.184 9.632 8.296 9.632 8.464V11.376C9.632 11.544 9.52 11.656 9.352 11.656H5.768V19.72C5.768 19.888 5.656 20 5.488 20H1.792ZM13.4951 20C13.3271 20 13.2151 19.888 13.2151 19.72V0.679998C13.2151 0.511999 13.3271 0.399999 13.4951 0.399999H22.3711C22.5391 0.399999 22.6511 0.511999 22.6511 0.679998V3.592C22.6511 3.76 22.5391 3.872 22.3711 3.872H17.4711V8.184H21.0551C21.2231 8.184 21.3351 8.296 21.3351 8.464V11.376C21.3351 11.544 21.2231 11.656 21.0551 11.656H17.4711V19.72C17.4711 19.888 17.3591 20 17.1911 20H13.4951ZM32.1983 20C32.0583 20 31.9463 19.916 31.8623 19.804L25.3383 9.276C25.2263 9.08 25.3103 8.94 25.5343 8.94H25.8143C25.9543 8.94 26.0663 9.024 26.1503 9.136L31.1903 17.312L28.6423 9.248C28.5863 9.052 28.6703 8.94 28.8663 8.94H29.0623C29.2023 8.94 29.3423 9.024 29.3983 9.164L32.0023 17.424V9.22C32.0023 9.052 32.1143 8.94 32.2823 8.94H32.4503C32.6183 8.94 32.7303 9.052 32.7303 9.22V17.424L35.3343 9.164C35.3903 9.024 35.5303 8.94 35.6703 8.94H35.8663C36.0623 8.94 36.1463 9.052 36.0903 9.248L33.5423 17.312L38.5823 9.136C38.6663 9.024 38.7783 8.94 38.9183 8.94H39.1983C39.4223 8.94 39.5063 9.08 39.3943 9.276L32.8703 19.804C32.7863 19.916 32.6743 20 32.5343 20H32.1983ZM29.3423 7.736C29.2023 7.848 29.0343 7.82 29.0623 7.568C29.2583 6.112 30.3223 4.88 31.6943 4.572C31.6943 4.572 32.0023 4.488 32.0023 4.768V7.54C32.0023 7.708 31.8623 7.792 31.6943 7.652C31.3583 7.372 31.0503 7.232 30.6022 7.232C30.0983 7.232 29.6783 7.4 29.3423 7.736ZM35.3903 7.736C35.0543 7.4 34.6343 7.232 34.1303 7.232C33.6823 7.232 33.3743 7.372 33.0383 7.652C32.8703 7.792 32.7303 7.708 32.7303 7.54V4.768C32.7303 4.488 33.0383 4.572 33.0383 4.572C34.4103 4.88 35.4743 6.112 35.6703 7.568C35.6983 7.82 35.5303 7.848 35.3903 7.736ZM24.9183 7.988C24.6663 7.988 24.5263 7.82 24.5263 7.512C24.6103 3.256 27.8863 0.231999 32.3663 0.231999C36.8463 0.231999 40.1223 3.256 40.2063 7.512C40.2063 7.82 40.0663 7.988 39.8143 7.988C39.6463 7.988 39.5623 7.932 39.3943 7.764C39.0303 7.428 38.6383 7.232 38.0783 7.232C37.6303 7.232 37.2383 7.372 36.8183 7.708C36.6783 7.82 36.4823 7.82 36.4543 7.624C36.2863 5.412 34.5503 3.788 32.3663 3.788C30.1823 3.788 28.4463 5.412 28.2783 7.624C28.2503 7.82 28.0543 7.82 27.9143 7.708C27.4943 7.372 27.1022 7.232 26.6543 7.232C26.0943 7.232 25.7023 7.428 25.3383 7.764C25.1703 7.932 25.0863 7.988 24.9183 7.988ZM47.0284 19.944C46.9444 20.196 46.6924 20.14 46.6924 19.888V11.376H42.3804C42.1844 11.376 42.1004 11.236 42.1844 11.04L46.3564 0.456C46.4404 0.204 46.6924 0.259999 46.6924 0.511999V9.024H51.0044C51.2004 9.024 51.2844 9.164 51.2004 9.36L47.0284 19.944ZM56.9625 20.168C54.7225 20.168 53.4905 18.936 53.4905 16.696V3.704C53.4905 1.464 54.7225 0.231999 56.9625 0.231999H60.6585C62.8985 0.231999 64.1305 1.464 64.1305 3.704V7.54C64.1305 7.708 64.0185 7.82 63.8505 7.82H60.2665C60.0985 7.82 59.9865 7.708 59.9865 7.54V4.712C59.9865 3.9 59.5665 3.424 58.8385 3.424C58.1105 3.424 57.6905 3.9 57.6905 4.712V15.688C57.6905 16.5 58.1105 16.976 58.8385 16.976C59.5665 16.976 59.9865 16.5 59.9865 15.688V12.356C59.9865 12.188 60.0985 12.076 60.2665 12.076H63.8505C64.0185 12.076 64.1305 12.188 64.1305 12.356V16.696C64.1305 18.936 62.8985 20.168 60.6585 20.168H56.9625ZM70.1409 20.168C67.9009 20.168 66.6689 18.936 66.6689 16.696V3.704C66.6689 1.464 67.9009 0.231999 70.1409 0.231999H73.5009C75.7689 0.231999 77.0289 1.464 77.0289 3.704V6.028C77.0289 6.196 76.9169 6.308 76.7489 6.308H73.3329C73.1649 6.308 73.0529 6.196 73.0529 6.028V4.684C73.0529 3.9 72.6329 3.396 71.9329 3.396C71.2329 3.396 70.8129 3.9 70.8129 4.684V9.052C71.4569 7.96 72.5489 7.372 73.9769 7.372C75.9089 7.372 77.1409 8.688 77.1409 10.788V16.696C77.1409 18.936 75.8809 20.168 73.6129 20.168H70.1409ZM71.9329 17.032C72.6329 17.032 73.0529 16.528 73.0529 15.744V11.852C73.0529 11.068 72.6329 10.564 71.9329 10.564C71.2329 10.564 70.8129 11.068 70.8129 11.852V15.744C70.8129 16.528 71.2329 17.032 71.9329 17.032Z" fill="#D0FD0A"/>
</svg>
