<svg width="32" height="32" viewBox="0 0 32 32" fill="none" xmlns="http://www.w3.org/2000/svg">
<circle cx="16" cy="16" r="15.5" fill="white" stroke="#00A8A3"/>
<path d="M15.9979 9.25C12.27 9.25 9.24778 12.25 9.9979 16C10.4969 18.4944 12.9868 20.8229 14.5982 22.1025C15.1249 22.5208 15.3882 22.7299 15.7972 22.7851C15.9105 22.8004 16.0853 22.8004 16.1986 22.7851C16.6075 22.7299 16.8709 22.5208 17.3976 22.1026C19.0091 20.8229 21.4991 18.4944 21.9979 16C22.7478 12.25 19.7258 9.25 15.9979 9.25Z" stroke="#00A8A3" stroke-linejoin="round"/>
<path d="M18.2478 15.3625C18.2478 16.6051 17.2404 17.6125 15.9978 17.6125C14.7552 17.6125 13.7478 16.6051 13.7478 15.3625C13.7478 14.1199 14.7552 13.1125 15.9978 13.1125C17.2404 13.1125 18.2478 14.1199 18.2478 15.3625Z" stroke="#00A8A3" stroke-linejoin="round"/>
</svg>
