<svg width="20" height="20" viewBox="0 0 20 20" fill="none" xmlns="http://www.w3.org/2000/svg">
<g clip-path="url(#clip0_15862_9947)">
<path d="M1 14.3979C1 14.92 1.42321 15.3432 1.94526 15.3432H8.68654C9.20859 15.3432 9.6318 14.92 9.6318 14.3979C9.6318 13.8759 9.20859 13.4526 8.68653 13.4526H1.94526C1.42321 13.4526 1 13.8759 1 14.3979ZM1 9.67159C1 10.1936 1.42321 10.6168 1.94526 10.6168H12.2051C12.7272 10.6168 13.1504 10.1936 13.1504 9.67159C13.1504 9.14953 12.7272 8.72632 12.2051 8.72632H1.94526C1.42321 8.72632 1 9.14953 1 9.67159ZM1.94526 4C1.42321 4 1 4.42321 1 4.94526C1 5.46732 1.42321 5.89053 1.94526 5.89053H17.0695C17.5915 5.89053 18.0148 5.46732 18.0148 4.94526C18.0148 4.42321 17.5915 4 17.0695 4H1.94526Z" fill="white"/>
</g>
<defs>
<clipPath id="clip0_15862_9947">
<rect width="19.3426" height="19.3426" fill="white"/>
</clipPath>
</defs>
</svg>
