<svg width="20" height="20" viewBox="0 0 20 20" fill="none" xmlns="http://www.w3.org/2000/svg">
<path d="M13.9532 8.53522C11.6713 9.17282 9.9974 11.2672 9.9974 13.7526C9.9974 10.7611 7.57227 8.33594 4.58073 8.33594H1.66406M15.4141 13.7526L12.4974 3.33594H10.8307M12.9661 5.0026H15.8307M15.8307 4.16927V5.83594M12.9141 5.0026L7.4974 9.16927M18.3307 13.7526C18.3307 15.3634 17.0249 16.6693 15.4141 16.6693C13.8032 16.6693 12.4974 15.3634 12.4974 13.7526C12.4974 12.1418 13.8032 10.8359 15.4141 10.8359C17.0249 10.8359 18.3307 12.1418 18.3307 13.7526ZM7.4974 13.7526C7.4974 15.3634 6.19156 16.6693 4.58073 16.6693C2.9699 16.6693 1.66406 15.3634 1.66406 13.7526C1.66406 12.1418 2.9699 10.8359 4.58073 10.8359C6.19156 10.8359 7.4974 12.1418 7.4974 13.7526Z" stroke="white" stroke-width="1.33" stroke-linecap="round" stroke-linejoin="round"/>
</svg>
