<svg width="20" height="20" viewBox="0 0 20 20" fill="none" xmlns="http://www.w3.org/2000/svg">
<path d="M15.4193 15.0026C15.4193 15.9231 14.6731 16.6693 13.7526 16.6693C12.8321 16.6693 12.0859 15.9231 12.0859 15.0026M15.4193 15.0026C15.4193 14.0821 14.6731 13.3359 13.7526 13.3359C12.8321 13.3359 12.0859 14.0821 12.0859 15.0026M15.4193 15.0026H17.9193M12.0859 15.0026H11.2526M7.08594 15.0026C7.08594 15.9231 6.33975 16.6693 5.41927 16.6693C4.4988 16.6693 3.7526 15.9231 3.7526 15.0026M7.08594 15.0026C7.08594 14.0821 6.33975 13.3359 5.41927 13.3359C4.4988 13.3359 3.7526 14.0821 3.7526 15.0026M7.08594 15.0026H11.2526M3.7526 15.0026C2.83213 15.0026 2.08594 14.2564 2.08594 13.3359V6.0026C2.08594 5.06918 2.08594 4.60247 2.26759 4.24595C2.42738 3.93235 2.68235 3.67738 2.99595 3.51759C3.35247 3.33594 3.81918 3.33594 4.7526 3.33594H8.58594C9.51936 3.33594 9.98607 3.33594 10.3426 3.51759C10.6562 3.67738 10.9112 3.93235 11.0709 4.24595C11.2526 4.60247 11.2526 5.06918 11.2526 6.0026V15.0026M11.2526 15.0026V6.66927H14.5859L17.0859 10.0026M17.0859 10.0026V15.0026M17.0859 10.0026H11.2526" stroke="white" stroke-width="1.33" stroke-linecap="round" stroke-linejoin="round"/>
</svg>
