<svg width="154" height="153" viewBox="0 0 154 153" fill="none" xmlns="http://www.w3.org/2000/svg">
<path opacity="0.1" d="M60.9016 17.685C64.9916 14.1995 67.0366 12.4568 69.1747 11.4349C74.12 9.07119 79.8691 9.07119 84.8143 11.4349C86.9525 12.4568 88.9975 14.1995 93.0874 17.685C94.7152 19.0722 95.5292 19.7658 96.3984 20.3484C98.391 21.684 100.629 22.6109 102.982 23.0755C104.009 23.2782 105.075 23.3632 107.207 23.5334C112.563 23.9608 115.242 24.1746 117.476 24.9638C122.644 26.7893 126.71 30.8545 128.535 36.0227C129.324 38.2572 129.538 40.9355 129.965 46.2922C130.136 48.4241 130.221 49.4901 130.423 50.5167C130.888 52.8701 131.815 55.1078 133.15 57.1004C133.733 57.9697 134.427 58.7836 135.814 60.4114C139.299 64.5014 141.042 66.5464 142.064 68.6845C144.428 73.6298 144.428 79.3788 142.064 84.3241C141.042 86.4622 139.299 88.5072 135.814 92.5972C134.427 94.225 133.733 95.0389 133.15 95.9082C131.815 97.9008 130.888 100.139 130.423 102.492C130.221 103.518 130.136 104.584 129.965 106.716C129.538 112.073 129.324 114.751 128.535 116.986C126.71 122.154 122.644 126.219 117.476 128.045C115.242 128.834 112.563 129.048 107.207 129.475C105.075 129.645 104.009 129.73 102.982 129.933C100.629 130.398 98.391 131.325 96.3984 132.66C95.5292 133.243 94.7152 133.936 93.0874 135.324C88.9975 138.809 86.9525 140.552 84.8143 141.574C79.8691 143.937 74.12 143.937 69.1747 141.574C67.0366 140.552 64.9916 138.809 60.9016 135.324C59.2738 133.936 58.4599 133.243 57.5906 132.66C55.5981 131.325 53.3603 130.398 51.007 129.933C49.9803 129.73 48.9144 129.645 46.7824 129.475C41.4258 129.048 38.7474 128.834 36.5129 128.045C31.3447 126.219 27.2795 122.154 25.454 116.986C24.6648 114.751 24.4511 112.073 24.0236 106.716C23.8535 104.584 23.7684 103.518 23.5657 102.492C23.1011 100.139 22.1742 97.9008 20.8387 95.9082C20.256 95.0389 19.5624 94.225 18.1752 92.5972C14.6898 88.5072 12.9471 86.4622 11.9251 84.3241C9.56142 79.3788 9.56142 73.6298 11.9251 68.6845C12.9471 66.5463 14.6898 64.5014 18.1752 60.4114C19.5624 58.7836 20.256 57.9697 20.8387 57.1004C22.1742 55.1078 23.1011 52.8701 23.5657 50.5167C23.7684 49.4901 23.8535 48.4241 24.0236 46.2922C24.4511 40.9355 24.6648 38.2572 25.454 36.0227C27.2795 30.8545 31.3447 26.7893 36.5129 24.9638C38.7474 24.1746 41.4258 23.9608 46.7824 23.5334C48.9144 23.3632 49.9803 23.2782 51.007 23.0755C53.3603 22.6109 55.5981 21.684 57.5906 20.3484C58.4599 19.7658 59.2738 19.0722 60.9016 17.685Z" fill="#00A8A3" stroke="#00A8A3" stroke-width="5.87513"/>
<path d="M62.8537 24.7916C66.4484 21.7282 68.2458 20.1965 70.125 19.2983C74.4714 17.2209 79.5243 17.2209 83.8707 19.2983C85.7499 20.1965 87.5472 21.7282 91.1419 24.7916C92.5726 26.0108 93.288 26.6204 94.052 27.1325C95.8033 28.3063 97.77 29.1209 99.8384 29.5293C100.741 29.7074 101.678 29.7822 103.551 29.9317C108.259 30.3074 110.613 30.4953 112.577 31.189C117.12 32.7934 120.693 36.3663 122.297 40.9086C122.991 42.8726 123.178 45.2265 123.554 49.9345C123.704 51.8083 123.778 52.7452 123.957 53.6475C124.365 55.7158 125.18 57.6826 126.353 59.4339C126.865 60.1979 127.475 60.9133 128.694 62.344C131.758 65.9386 133.289 67.736 134.188 69.6152C136.265 73.9616 136.265 79.0145 134.188 83.3609C133.289 85.2401 131.758 87.0375 128.694 90.6322C127.475 92.0629 126.865 92.7782 126.353 93.5422C125.18 95.2935 124.365 97.2603 123.957 99.3286C123.778 100.231 123.704 101.168 123.554 103.042C123.178 107.75 122.991 110.104 122.297 112.067C120.693 116.61 117.12 120.183 112.577 121.787C110.613 122.481 108.259 122.669 103.551 123.044C101.678 123.194 100.741 123.269 99.8384 123.447C97.77 123.855 95.8033 124.67 94.052 125.844C93.288 126.356 92.5726 126.965 91.1419 128.185C87.5472 131.248 85.7499 132.78 83.8707 133.678C79.5243 135.755 74.4714 135.755 70.125 133.678C68.2458 132.78 66.4484 131.248 62.8537 128.185C61.423 126.965 60.7077 126.356 59.9437 125.844C58.1924 124.67 56.2256 123.855 54.1573 123.447C53.255 123.269 52.3181 123.194 50.4443 123.044C45.7363 122.669 43.3823 122.481 41.4184 121.787C36.8761 120.183 33.3031 116.61 31.6987 112.067C31.005 110.104 30.8172 107.75 30.4415 103.042C30.292 101.168 30.2172 100.231 30.0391 99.3286C29.6307 97.2603 28.816 95.2935 27.6422 93.5422C27.1302 92.7782 26.5206 92.0629 25.3013 90.6322C22.238 87.0375 20.7063 85.2401 19.8081 83.3609C17.7306 79.0145 17.7306 73.9616 19.8081 69.6152C20.7063 67.736 22.238 65.9386 25.3013 62.344C26.5206 60.9133 27.1302 60.1979 27.6422 59.4339C28.816 57.6826 29.6307 55.7158 30.0391 53.6475C30.2172 52.7452 30.292 51.8083 30.4415 49.9345C30.8172 45.2266 31.005 42.8726 31.6987 40.9087C33.3031 36.3663 36.8761 32.7934 41.4184 31.189C43.3823 30.4953 45.7363 30.3074 50.4443 29.9317C52.3181 29.7822 53.255 29.7074 54.1573 29.5293C56.2256 29.1209 58.1924 28.3063 59.9437 27.1325C60.7077 26.6204 61.423 26.0108 62.8537 24.7916Z" fill="#00A8A3" stroke="#00A8A3" stroke-width="5.49478"/>
<path d="M77.8219 109.917H77.1016L82.1195 94.7313C82.0121 94.72 81.9041 94.7097 81.7961 94.6989L76.9499 109.363V94.446C76.9499 94.446 76.9484 94.446 76.9474 94.446L76.8507 94.445L76.7916 94.4439L76.732 94.445L76.6363 94.446C76.6348 94.446 76.6338 94.4465 76.6327 94.4465V109.363L71.7871 94.6989C71.6791 94.7097 71.5706 94.72 71.4631 94.7313L76.4811 109.917H75.7613L66.6997 95.4979C66.2884 95.5884 65.8807 95.6861 65.4756 95.7879L74.7757 110.586C74.9808 110.913 75.3356 111.107 75.7248 111.107H77.8584C78.2476 111.107 78.6024 110.913 78.808 110.586L88.1076 95.7879C87.7025 95.6861 87.2948 95.5884 86.8835 95.4979L77.8219 109.917Z" fill="#D0FD0A"/>
<path d="M90.9564 68.2816C91.6813 67.3479 92.6145 66.5695 93.672 66.0194C94.8612 65.4009 96.2072 65.0739 97.5645 65.0739C98.9213 65.0739 100.267 65.4009 101.456 66.0194C102.379 66.4991 103.207 67.1531 103.885 67.932C103.887 68.0482 103.89 68.1649 103.891 68.2816H90.9564ZM89.5826 62.8143C88.8516 61.1007 87.8289 59.5691 86.5426 58.2627C85.2557 56.9548 83.7704 55.9383 82.1278 55.2412C80.426 54.5188 78.6296 54.1738 76.7885 54.2145C74.9001 54.2561 73.0724 54.6561 71.3567 55.4031C69.6899 56.1286 68.1953 57.1512 66.9146 58.4416C64.38 60.9964 62.9281 64.369 62.7954 67.9824C62.0551 67.059 61.1168 66.2883 60.0582 65.7377C58.8238 65.0955 57.4274 64.7562 56.0197 64.7562C54.6115 64.7562 53.2151 65.0955 51.9807 65.7377C51.136 66.1772 50.3679 66.7577 49.7159 67.443C49.8563 64.2503 50.5766 61.1532 51.8624 58.2242C52.5452 56.6684 53.3879 55.1682 54.3673 53.7651C55.338 52.3749 56.4511 51.0675 57.6762 49.8798C58.9014 48.6917 60.2489 47.613 61.6808 46.6737C63.1265 45.7257 64.672 44.9113 66.273 44.2532C69.6051 42.8846 73.1444 42.1905 76.7921 42.1905C80.4394 42.1905 83.9786 42.8846 87.3107 44.2532C88.9117 44.9113 90.4572 45.7257 91.9029 46.6737C93.3348 47.613 94.6823 48.6917 95.9075 49.8798C97.1327 51.0675 98.2457 52.3749 99.2164 53.7651C100.196 55.1682 101.039 56.6684 101.721 58.2242C103.007 61.1537 103.728 64.2498 103.868 67.443C103.216 66.7577 102.448 66.1772 101.603 65.7377C100.369 65.0955 98.9722 64.7562 97.5645 64.7562C96.1563 64.7562 94.7599 65.0955 93.5255 65.7377C92.4633 66.2904 91.5219 67.0646 90.7806 67.9921C90.6834 66.1932 90.2819 64.4534 89.5826 62.8143ZM87.7544 65.7377C86.5205 65.0955 85.1241 64.7562 83.7159 64.7562C82.3082 64.7562 80.9113 65.0955 79.6774 65.7377C78.5468 66.3258 77.5535 67.1649 76.7921 68.1726C76.0302 67.1649 75.0369 66.3258 73.9063 65.7377C72.6724 65.0955 71.2755 64.7562 69.8678 64.7562C68.4596 64.7562 67.0632 65.0955 65.8293 65.7377C64.781 66.2826 63.8514 67.0441 63.1142 67.9546C63.253 64.4364 64.671 61.1537 67.1398 58.6653C68.3923 57.4031 69.8539 56.4036 71.4837 55.6941C73.1613 54.9635 74.9484 54.5728 76.7952 54.5317C78.5916 54.4921 80.3437 54.8288 82.0039 55.5337C83.6079 56.2144 85.0588 57.2072 86.3164 58.4853C87.5745 59.7635 88.575 61.2622 89.2906 62.9393C89.9667 64.5233 90.3585 66.2045 90.4592 67.9428C89.724 67.0374 88.7981 66.2801 87.7544 65.7377ZM77.1083 68.2816C77.8327 67.3479 78.7659 66.5695 79.8239 66.0194C81.0131 65.4009 82.3591 65.0739 83.7159 65.0739C85.0732 65.0739 86.4192 65.4009 87.6079 66.0194C88.666 66.5695 89.5991 67.3479 90.324 68.2816H77.1083ZM63.2597 68.2816C63.9846 67.3479 64.9178 66.5695 65.9758 66.0194C67.1645 65.4009 68.5105 65.0739 69.8678 65.0739C71.2246 65.0739 72.5706 65.4009 73.7598 66.0194C74.8179 66.5695 75.751 67.3479 76.4754 68.2816H63.2597ZM49.6928 68.2816C49.6938 68.1649 49.6964 68.0482 49.699 67.932C50.3766 67.1531 51.2049 66.4996 52.1272 66.0194C53.3164 65.4009 54.6624 65.0739 56.0197 65.0739C57.3765 65.0739 58.7225 65.4009 59.9117 66.0194C60.9692 66.5695 61.9024 67.3479 62.6273 68.2816H49.6928ZM102.812 57.7455C102.098 56.1188 101.216 54.5502 100.193 53.0834C99.1789 51.631 98.0159 50.2654 96.7368 49.0248C95.4571 47.7842 94.051 46.6583 92.5559 45.6778C91.0469 44.6881 89.4341 43.8383 87.7631 43.1519C84.2866 41.7237 80.5956 40.9998 76.7921 40.9998C72.9881 40.9998 69.2971 41.7237 65.8206 43.1519C64.1496 43.8383 62.5368 44.6881 61.0278 45.6778C59.5328 46.6583 58.1266 47.7842 56.8469 49.0248C55.5678 50.2654 54.4048 51.631 53.391 53.0834C52.3673 54.5502 51.4861 56.1188 50.772 57.7455C49.2866 61.1295 48.5221 64.7264 48.5 68.4368C48.4985 68.6559 48.5597 68.8697 48.6764 69.0559L57.6526 83.3379C58.0109 83.2022 58.3934 83.0628 58.7975 82.9225L49.7956 68.5993H62.8288L66.8787 80.8546C66.984 80.8361 67.0889 80.8171 67.1948 80.7996L63.163 68.5993H76.6332V80.0089L76.6908 80.0084L76.7921 80.0074L76.8934 80.0084L76.9505 80.0089V68.5993H90.4207L86.3889 80.7996C86.4948 80.8171 86.5997 80.8361 86.7051 80.8541L90.7549 68.5993H103.788L94.7862 82.9225C95.1903 83.0628 95.5728 83.2016 95.9316 83.3379L104.907 69.0559C105.024 68.8697 105.085 68.6559 105.084 68.4368C105.062 64.7264 104.297 61.1295 102.812 57.7455Z" fill="#D0FD0A"/>
<path d="M61.1263 57.3904L61.8784 56.3092C61.9134 56.2588 61.9031 56.2012 61.8527 56.1662L60.9741 55.5549C60.954 55.541 60.933 55.5344 60.9129 55.5344C60.8815 55.5344 60.8522 55.5503 60.8312 55.5806L60.079 56.6618L58.7782 55.757L59.8065 54.2788C59.8415 54.2285 59.8312 54.1709 59.7808 54.1359L58.9021 53.5246C58.8821 53.5107 58.861 53.5041 58.841 53.5041C58.8096 53.5041 58.7803 53.52 58.7592 53.5503L56.8965 56.2279C56.8616 56.2783 56.8718 56.3359 56.9227 56.3708L62.6656 60.3662C62.6856 60.38 62.7067 60.3867 62.7273 60.3867C62.7581 60.3867 62.7874 60.3713 62.809 60.3404L63.5843 59.2258C63.6198 59.1749 63.6095 59.1178 63.5586 59.0824L61.1263 57.3904Z" fill="#D0FD0A"/>
<path d="M68.8913 52.7703C68.8702 52.7385 68.8404 52.722 68.8085 52.722C68.789 52.722 68.7684 52.7282 68.7489 52.741L67.3654 53.6526L64.2071 48.8583C64.186 48.8265 64.1562 48.81 64.1243 48.81C64.1042 48.81 64.0842 48.8162 64.0641 48.829L62.9305 49.5761C62.8786 49.6105 62.8672 49.6671 62.9012 49.719L66.7505 55.561C66.771 55.5929 66.8014 55.6094 66.8332 55.6094C66.8528 55.6094 66.8733 55.6032 66.8929 55.5904L69.4959 53.8752C69.5473 53.8413 69.5592 53.7842 69.5252 53.7328L68.8913 52.7703Z" fill="#D0FD0A"/>
<path d="M73.8295 45.1492C73.8325 45.087 73.8053 45.0536 73.7565 45.0536C73.7462 45.0536 73.7354 45.0551 73.7236 45.0582L72.502 45.3471C72.4418 45.361 72.411 45.4109 72.413 45.4633L72.3385 48.1872L72.2783 48.2016L71.0115 45.795C70.992 45.7487 70.958 45.7266 70.9149 45.7266C70.9035 45.7266 70.8922 45.7276 70.8799 45.7307L69.5586 46.0433C69.4881 46.0597 69.4676 46.107 69.5041 46.1723L71.9174 50.1157L72.5143 52.6391C72.5261 52.6889 72.5626 52.7188 72.6094 52.7188C72.6187 52.7188 72.6279 52.7177 72.6382 52.7152L73.9595 52.4026C74.0197 52.3887 74.05 52.3388 74.0361 52.2787L73.4392 49.7558L73.8295 45.1492Z" fill="#D0FD0A"/>
<path d="M80.5731 45.1691L79.226 44.9973C79.2204 44.9968 79.2147 44.9963 79.2096 44.9963C79.1566 44.9963 79.1181 45.0313 79.1109 45.0868L78.2276 52.0265C78.2199 52.0877 78.2554 52.134 78.3166 52.1417L79.6636 52.3134C79.6692 52.3139 79.6749 52.3145 79.68 52.3145C79.733 52.3145 79.7715 52.28 79.7787 52.224L80.662 45.2842C80.6697 45.2231 80.6343 45.1768 80.5731 45.1691Z" fill="#D0FD0A"/>
<path d="M89.9364 48.8986L88.8943 48.2965C88.8758 48.2857 88.8567 48.2806 88.8387 48.2806C88.8048 48.2806 88.774 48.2991 88.7534 48.334L86.7462 51.8085L86.6928 51.7777L87.7483 47.7294C87.7652 47.6796 87.7447 47.6323 87.6912 47.6014L86.4532 46.8863C86.4347 46.8755 86.4156 46.8703 86.3976 46.8703C86.3637 46.8703 86.3329 46.8888 86.3128 46.9238L82.8126 52.9818C82.7818 53.0353 82.7972 53.0913 82.8507 53.1221L83.8928 53.7242C83.9113 53.735 83.9303 53.7401 83.9483 53.7401C83.9823 53.7401 84.0131 53.7216 84.0332 53.6867L86.1231 50.0698L86.1766 50.1006L85.0794 54.3031C85.0625 54.3525 85.0774 54.409 85.1308 54.4399L86.3339 55.1345C86.3524 55.1452 86.3709 55.1504 86.3889 55.1504C86.4228 55.1504 86.4542 55.1319 86.4743 55.0969L89.9739 49.0389C90.0048 48.9855 89.9899 48.9294 89.9364 48.8986Z" fill="#D0FD0A"/>
<path d="M94.1547 58.0028L93.1588 56.59C93.1372 56.5596 93.1079 56.5442 93.0771 56.5442C93.0565 56.5442 93.0355 56.5509 93.0154 56.5653L92.1409 57.1817C92.0905 57.2177 92.0802 57.2748 92.1162 57.3252L92.2941 57.5776L91.2766 58.2948C91.1697 58.3704 91.0653 58.4074 90.9686 58.4074C90.8442 58.4074 90.7332 58.3457 90.6463 58.2228C90.4926 58.0043 90.5465 57.7771 90.7902 57.6054L94.0863 55.2815C94.1933 55.2059 94.2976 55.1684 94.3943 55.1684C94.5187 55.1684 94.6298 55.2306 94.7161 55.3535C94.8704 55.572 94.8164 55.7987 94.5727 55.9709L94.0596 56.3324C94.0092 56.3684 93.9994 56.4254 94.0349 56.4758L94.7938 57.5524C94.8154 57.5827 94.8442 57.5982 94.875 57.5982C94.8956 57.5982 94.9172 57.5915 94.9372 57.5771L95.7526 57.0018C96.4256 56.5278 96.5346 55.8969 96.0606 55.2239L95.2776 54.1139C94.9974 53.717 94.6627 53.516 94.2971 53.516C94.0437 53.516 93.7753 53.6126 93.4997 53.8065L89.5728 56.5756C88.9425 57.0198 88.8165 57.6624 89.2787 58.3185C89.5563 58.7118 89.8849 58.9524 90.3481 58.9524C90.3902 58.9524 90.4329 58.9508 90.4771 58.9467L90.107 59.2074C90.0566 59.2429 90.0468 59.3005 90.0823 59.3508L90.7995 60.3683C90.8211 60.3986 90.8504 60.4141 90.8812 60.4141C90.9013 60.4141 90.9229 60.4074 90.9429 60.393L94.13 58.1462C94.1804 58.1108 94.1902 58.0532 94.1547 58.0028Z" fill="#D0FD0A"/>
<path d="M72.7309 58.0433H70.4075C70.3633 58.0433 70.334 58.0726 70.334 58.1163V63.1008C70.334 63.1445 70.3633 63.1738 70.4075 63.1738H71.3751C71.4188 63.1738 71.4481 63.1445 71.4481 63.1008V60.9898H72.3864C72.4301 60.9898 72.4599 60.9605 72.4599 60.9163V60.1543C72.4599 60.1101 72.4301 60.0808 72.3864 60.0808H71.4481V58.9523H72.7309C72.7746 58.9523 72.8039 58.923 72.8039 58.8788V58.1163C72.8039 58.0726 72.7746 58.0433 72.7309 58.0433Z" fill="#D0FD0A"/>
<path d="M76.0587 62.2062H74.8788V58.1163C74.8788 58.0726 74.8495 58.0433 74.8052 58.0433H73.8377C73.794 58.0433 73.7646 58.0726 73.7646 58.1163V63.1003C73.7646 63.1445 73.794 63.1738 73.8377 63.1738H76.0587C76.1029 63.1738 76.1322 63.1445 76.1322 63.1003V62.2798C76.1322 62.2355 76.1029 62.2062 76.0587 62.2062Z" fill="#D0FD0A"/>
<path d="M79.4809 58.0433H77.1575C77.1133 58.0433 77.084 58.0726 77.084 58.1163V63.1008C77.084 63.1445 77.1133 63.1738 77.1575 63.1738H79.4809C79.5246 63.1738 79.5539 63.1445 79.5539 63.1008V62.3384C79.5539 62.2947 79.5246 62.2654 79.4809 62.2654H78.1981V60.9456H79.1364C79.1801 60.9456 79.2099 60.9163 79.2099 60.8726V60.1101C79.2099 60.0664 79.1801 60.0371 79.1364 60.0371H78.1981V58.9523H79.4809C79.5246 58.9523 79.5539 58.923 79.5539 58.8788V58.1163C79.5539 58.0726 79.5246 58.0433 79.4809 58.0433Z" fill="#D0FD0A"/>
<path d="M81.5996 61.2536L81.849 59.1718H81.8927L82.142 61.2536H81.5996ZM82.6109 58.0433H81.1893C81.1451 58.0433 81.123 58.0577 81.1158 58.1091L80.3683 63.0931C80.3611 63.1373 80.3904 63.1738 80.4341 63.1738H81.3066C81.3503 63.1738 81.3724 63.1594 81.3796 63.108L81.4896 62.1625H82.252L82.3621 63.108C82.3693 63.1594 82.3914 63.1738 82.4351 63.1738H83.3662C83.4099 63.1738 83.4392 63.1373 83.432 63.0931L82.6844 58.1091C82.6772 58.0577 82.6551 58.0433 82.6109 58.0433Z" fill="#D0FD0A"/>
<path d="M88.7315 92.559C88.5161 92.5955 88.2724 92.5852 87.9963 92.5143L85.5969 91.8989C85.5367 91.8829 85.5074 91.8331 85.5223 91.7734L87.2765 84.972C87.2914 84.9123 87.3423 84.8825 87.402 84.898L89.7418 85.4985C90.6112 85.7216 90.968 86.282 90.7618 87.082L90.4883 88.1426C90.3413 88.7123 90.0235 88.9935 89.5099 89.0007C90.0184 89.3015 90.1485 89.7082 89.9988 90.2881L89.8873 90.72L89.6554 91.6182C89.5145 92.1642 89.1947 92.4803 88.7315 92.559ZM80.8766 91.2788L79.4561 91.1688C78.6325 91.1051 78.215 90.6166 78.2798 89.793L78.743 83.9041C78.7481 83.8424 78.7923 83.8039 78.8546 83.809L80.2134 83.9139C80.2751 83.9185 80.3131 83.9633 80.3085 84.0244L79.8741 89.5442C79.8504 89.8423 79.9908 90.029 80.2586 90.0495C80.5265 90.0706 80.6946 89.9076 80.7178 89.6084L81.1522 84.0903C81.1573 84.028 81.2016 83.99 81.2638 83.9951L82.6221 84.1C82.6843 84.1047 82.7224 84.1489 82.7172 84.2111L82.254 90.1004C82.1887 90.9246 81.7003 91.3421 80.8766 91.2788ZM75.087 91.0346L71.9678 91.2891C71.9056 91.2943 71.8614 91.2567 71.8562 91.1945L71.2953 84.1941C71.2902 84.1324 71.3282 84.0882 71.3899 84.0836L72.7493 83.9725C72.8104 83.9674 72.8552 84.0054 72.8603 84.0671L73.3205 89.8115L74.978 89.6763C75.0402 89.6717 75.085 89.7087 75.0896 89.7704L75.1816 90.9236C75.1868 90.9853 75.1487 91.0295 75.087 91.0346ZM67.3786 92.1595L66.0553 92.4891C65.2532 92.6891 64.7026 92.3575 64.5036 91.5559L63.352 86.9041C63.153 86.1026 63.4851 85.5514 64.2872 85.3524L65.6111 85.0224C66.4136 84.8224 66.9637 85.154 67.1622 85.9555L67.5026 87.3288C67.5175 87.3889 67.4871 87.4393 67.427 87.4547L66.1437 87.7735C66.083 87.7884 66.0332 87.7591 66.0188 87.6984L65.7679 86.6856C65.6954 86.3956 65.5026 86.2625 65.2419 86.3272C64.9813 86.3925 64.8733 86.6002 64.9453 86.8907L65.9185 90.8202C65.9905 91.1112 66.1833 91.2439 66.444 91.1791C66.7046 91.1143 66.8131 90.9061 66.7406 90.6156L66.4455 89.4228C66.4306 89.3621 66.4609 89.3123 66.5211 89.2974L67.8044 88.9776C67.8645 88.9627 67.9149 88.993 67.9298 89.0532L68.3144 90.6069C68.5128 91.4089 68.1812 91.9595 67.3786 92.1595ZM95.2702 84.3926C94.9088 84.2579 94.5263 84.1211 94.1211 83.9828C92.6662 83.4867 90.9341 82.9787 88.9454 82.5366C88.8415 82.5134 88.7382 82.4903 88.6333 82.4677C87.8971 82.3088 87.1223 82.1607 86.3192 82.0245C86.2133 82.006 86.11 81.9869 86.003 81.9695C83.328 81.5309 80.2993 81.2389 76.9502 81.2301C76.8967 81.2296 76.8453 81.2281 76.7919 81.2281C76.7379 81.2281 76.6865 81.2296 76.6325 81.2301C73.284 81.2389 70.2547 81.5309 67.5802 81.9695C67.4727 81.9875 67.3694 82.0065 67.2635 82.0245C66.4609 82.1607 65.6856 82.3088 64.9494 82.4682C64.845 82.4908 64.7412 82.5134 64.6378 82.5366C62.6487 82.9792 60.9171 83.4867 59.4616 83.9828C59.0569 84.1211 58.6744 84.2579 58.313 84.3926C57.8374 84.5694 57.4025 84.7417 57.0045 84.9062C56.2811 85.2049 55.6827 85.4774 55.2246 85.6995L61.514 95.707C62.1176 95.4932 62.7504 95.2885 63.4065 95.0921C63.8563 94.9574 64.3165 94.8268 64.7921 94.7024C65.189 94.5986 65.5972 94.5004 66.0116 94.4047C66.7776 94.2284 67.5715 94.0654 68.4002 93.9225C68.5061 93.9045 68.6095 93.8844 68.7164 93.867C69.4717 93.7425 70.2629 93.6402 71.0717 93.5492C71.1786 93.5374 71.2876 93.5271 71.395 93.5158C73.032 93.3431 74.7672 93.2356 76.6325 93.23C76.6865 93.23 76.7379 93.2279 76.7919 93.2279C76.8453 93.2279 76.8967 93.23 76.9502 93.23C78.816 93.2356 80.5507 93.3431 82.1877 93.5158C82.2951 93.5271 82.4046 93.5374 82.5111 93.5492C83.3198 93.6402 84.1115 93.7425 84.8668 93.867C84.9732 93.8844 85.0766 93.904 85.1825 93.9225C86.0118 94.0654 86.8051 94.2284 87.5716 94.4047C87.986 94.4999 88.3942 94.5986 88.7912 94.7024C89.2662 94.8268 89.7269 94.9574 90.1772 95.0921C90.8328 95.2885 91.4657 95.4932 92.0692 95.707L98.3586 85.6995C97.9005 85.4774 97.3021 85.2049 96.5787 84.9057C96.1808 84.7417 95.7453 84.5694 95.2702 84.3926Z" fill="#D0FD0A"/>
<path d="M88.2052 89.3035L87.7851 89.196L87.29 91.1163L87.7101 91.2243C87.9898 91.2957 88.1656 91.1919 88.2381 90.9117L88.5168 89.8315C88.5892 89.5513 88.4849 89.376 88.2052 89.3035Z" fill="#D0FD0A"/>
<path d="M88.8878 86.4923L88.5079 86.3951L88.0693 88.0954L88.4493 88.1931C88.7295 88.2645 88.9053 88.1602 88.9778 87.8805L89.1994 87.0203C89.2719 86.7401 89.1675 86.5648 88.8878 86.4923Z" fill="#D0FD0A"/>
<circle cx="76.5183" cy="76.0183" r="46.149" stroke="white" stroke-opacity="0.4" stroke-width="1.73864"/>
</svg>
