<svg width="90" height="23" viewBox="0 0 90 23" fill="none" xmlns="http://www.w3.org/2000/svg">
<path d="M0 21.094V0H9.52316V3.86183H4.26395V8.18291H8.51742V12.0865H4.23252V21.094H0Z" fill="black"/>
<path d="M20.2747 12.1282H16.0631V21.1148H11.8516V0H21.3643V3.84096H16.1469V8.10985H20.2747V12.1282Z" fill="black"/>
<path d="M47.67 20.0717V11.1164H43.7832C45.1871 7.56768 46.6852 4.30078 48.2462 1.02344C48.5186 3.98766 48.3719 6.94144 48.4767 10.0309H52.4368C50.9072 13.5379 49.4615 16.8465 48.0262 20.1447L47.67 20.0821V20.0717Z" fill="black"/>
<path d="M28.9383 7.33694C27.6706 6.19927 26.5601 7.26388 25.3867 7.41001C25.502 4.10135 29.1268 1.03276 32.9089 0.91795C36.7747 0.792702 40.5777 3.80911 40.9025 7.38913C39.7291 7.33694 38.6081 6.15752 37.3404 7.35782C36.7223 4.96766 35.3708 3.47511 32.9612 3.56905C30.7507 3.65255 29.483 5.06159 28.9487 7.34738L28.9383 7.33694Z" fill="black"/>
<path d="M33.7127 17.4742C34.2785 15.6059 34.8442 13.7376 35.4204 11.8693C35.7033 10.9404 35.9861 10.0219 36.2795 9.09293C36.3947 8.70675 36.5519 8.39363 37.2224 8.67544C36.3528 11.5353 35.4728 14.4056 34.5299 17.4742C34.7394 17.2863 34.8337 17.2341 34.8861 17.161C34.9699 17.0567 35.0223 16.9314 35.0956 16.8166C36.6462 14.2803 38.1967 11.744 39.7472 9.20774C39.9986 8.80069 40.2082 8.27882 40.931 8.70675C40.7634 9.01987 40.6168 9.31212 40.4491 9.58349C38.4376 12.8504 36.4157 16.1277 34.3937 19.3842C33.6289 20.6262 32.6232 20.6262 31.8584 19.3946C29.784 16.0442 27.7201 12.6938 25.6458 9.33299C25.5306 9.14512 25.4363 8.93637 25.3105 8.69631C26.0125 8.27882 26.243 8.77981 26.4944 9.18687C28.024 11.6918 29.5535 14.2073 31.0831 16.7122C31.2403 16.9627 31.3974 17.2132 31.6908 17.422C30.8002 14.5204 29.9097 11.6083 29.0192 8.69631C29.784 8.28926 29.8888 8.80069 30.025 9.2495C30.6955 11.4518 31.3555 13.6541 32.026 15.8564C32.2041 16.4304 32.3822 16.994 32.686 17.5681C32.707 17.3072 32.7489 17.0567 32.7489 16.7957C32.7489 14.3638 32.7279 11.9319 32.7175 9.48956C32.7175 9.29124 32.6651 9.07206 32.7175 8.89462C32.7698 8.7485 32.9689 8.55019 33.0946 8.55019C33.2308 8.55019 33.4299 8.7485 33.4822 8.89462C33.5451 9.10337 33.5032 9.35387 33.5032 9.59393C33.4927 12.0258 33.4822 14.4578 33.4718 16.9001C33.4718 17.0775 33.5137 17.2654 33.5241 17.4428L33.6813 17.4637L33.7127 17.4742Z" fill="black"/>
<path d="M33.5586 4.3125C35.2348 4.46906 36.3873 5.64849 36.4082 7.21409C35.4863 6.74441 34.5643 6.64004 33.5586 7.30803V4.32294V4.3125Z" fill="black"/>
<path d="M32.7825 4.29688C32.7825 4.72481 32.7825 5.07968 32.7825 5.44499C32.7825 6.00861 32.7825 6.56179 32.7825 7.34459C31.7349 6.64529 30.7815 6.69747 29.8281 7.22978C29.9224 5.58067 31.0225 4.46387 32.7825 4.29688Z" fill="black"/>
<path d="M64.1986 21.7057C62.4213 21.7057 60.9897 21.1824 59.9035 20.1358C58.8372 19.0694 58.304 17.6476 58.304 15.8703V6.27305C58.304 4.51553 58.8372 3.11345 59.9035 2.06684C60.9897 1.02022 62.4213 0.496913 64.1986 0.496913C65.9956 0.496913 67.4273 1.02022 68.4937 2.06684C69.5798 3.11345 70.1229 4.51553 70.1229 6.27305V6.59889C70.1229 6.69763 70.0834 6.78649 70.0044 6.86548C69.9451 6.92472 69.8662 6.95434 69.7674 6.95434L66.3017 7.10245C66.0648 7.10245 65.9463 6.99384 65.9463 6.77661V6.00646C65.9463 5.43379 65.7883 4.96972 65.4723 4.61427C65.1564 4.25881 64.7318 4.08108 64.1986 4.08108C63.6852 4.08108 63.2705 4.25881 62.9545 4.61427C62.6386 4.96972 62.4806 5.43379 62.4806 6.00646V16.2258C62.4806 16.7985 62.6386 17.2625 62.9545 17.618C63.2705 17.9537 63.6852 18.1215 64.1986 18.1215C64.7318 18.1215 65.1564 17.9537 65.4723 17.618C65.7883 17.2625 65.9463 16.7985 65.9463 16.2258V15.426C65.9463 15.3273 65.9759 15.2483 66.0351 15.189C66.1141 15.1101 66.203 15.0706 66.3017 15.0706L69.7674 15.2187C69.8662 15.2187 69.9451 15.2582 70.0044 15.3372C70.0834 15.3964 70.1229 15.4754 70.1229 15.5741V15.8703C70.1229 17.6476 69.5798 19.0694 68.4937 20.1358C67.4076 21.1824 65.9759 21.7057 64.1986 21.7057ZM83.2708 13.2637C83.3498 13.7376 83.3893 14.3202 83.3893 15.0113C83.3893 15.4458 83.3695 16.0382 83.33 16.7886C83.2708 18.3486 82.7376 19.5631 81.7305 20.432C80.7233 21.2811 79.3805 21.7057 77.702 21.7057C76.1222 21.7057 74.8386 21.3108 73.8512 20.5209C72.8836 19.731 72.3109 18.556 72.1332 16.9959C72.0542 16.5812 72.0147 16.0382 72.0147 15.3668L71.9555 5.79911C71.9555 4.17982 72.4689 2.89623 73.4958 1.94835C74.5424 0.980726 75.9247 0.496913 77.6427 0.496913C79.2423 0.496913 80.5456 0.980726 81.5527 1.94835C82.5796 2.91598 83.093 4.19957 83.093 5.79911V6.68775C83.093 6.78649 83.0535 6.87535 82.9746 6.95434C82.9153 7.01359 82.8363 7.04321 82.7376 7.04321H79.2719C79.1732 7.04321 79.0843 7.01359 79.0053 6.95434C78.9461 6.87535 78.9164 6.78649 78.9164 6.68775V6.03608C78.9164 5.5029 78.7881 5.05858 78.5314 4.70313C78.2747 4.34767 77.9784 4.16995 77.6427 4.16995C77.2083 4.16995 76.8528 4.34767 76.5764 4.70313C76.2999 5.03884 76.1617 5.48315 76.1617 6.03608V9.02783C76.1617 9.08707 76.1814 9.12657 76.2209 9.14631C76.2604 9.14631 76.2999 9.12657 76.3394 9.08707C76.9911 8.53414 77.7316 8.25768 78.561 8.25768C79.9433 8.25768 81.0492 8.71187 81.8786 9.62025C82.7277 10.5286 83.1918 11.7431 83.2708 13.2637ZM79.0942 16.4628C79.1337 15.5149 79.1534 14.9323 79.1534 14.7151C79.1534 14.1819 79.1139 13.5698 79.0349 12.8786C78.9757 12.4244 78.8276 12.0689 78.5906 11.8122C78.3536 11.5555 78.0476 11.4271 77.6724 11.4271C77.2774 11.4271 76.9516 11.5654 76.6949 11.8418C76.4579 12.0986 76.3098 12.4639 76.2505 12.9378C76.1913 13.708 76.1617 14.3004 76.1617 14.7151C76.1617 15.189 76.1913 15.8012 76.2505 16.5516C76.3098 17.0651 76.4579 17.46 76.6949 17.7365C76.9516 18.0129 77.2774 18.1512 77.6724 18.1512C78.0673 18.1512 78.3833 18.0031 78.6202 17.7069C78.877 17.4106 79.0349 16.9959 79.0942 16.4628Z" fill="black"/>
</svg>
