<svg width="61" height="39" viewBox="0 0 61 39" fill="none" xmlns="http://www.w3.org/2000/svg">
<path d="M-0.00195312 34.1319V17.8747C-0.00195312 15.0714 1.53922 13.5303 4.34246 13.5303H8.97003C11.7733 13.5303 13.3144 15.0714 13.3144 17.8747V22.6762C13.3144 22.8865 13.1729 23.0281 12.9625 23.0281H8.47653C8.26618 23.0281 8.12461 22.8865 8.12461 22.6762V19.1368C8.12461 18.1214 7.59875 17.5228 6.6886 17.5228C5.77846 17.5228 5.2526 18.1174 5.2526 19.1368V32.8738C5.2526 33.8892 5.77846 34.4838 6.6886 34.4838C7.59875 34.4838 8.12461 33.8892 8.12461 32.8738V28.7034C8.12461 28.493 8.26618 28.3514 8.47653 28.3514H12.9625C13.1729 28.3514 13.3144 28.493 13.3144 28.7034V34.1359C13.3144 36.9391 11.7733 38.4803 8.97003 38.4803H4.34246C1.53922 38.4803 -0.00195312 36.9391 -0.00195312 34.1359V34.1319Z" fill="#00A8A3"/>
<path d="M16.6748 37.9138V14.0883C16.6748 13.8779 16.8164 13.7363 17.0267 13.7363H21.6543C21.8646 13.7363 22.0062 13.8779 22.0062 14.0883V33.6422H27.6491C27.8594 33.6422 28.001 33.7837 28.001 33.9941V37.9178C28.001 38.1282 27.8594 38.2697 27.6491 38.2697H17.0308C16.8204 38.2697 16.6788 38.1282 16.6788 37.9178L16.6748 37.9138Z" fill="#00A8A3"/>
<path d="M30.3047 34.1316V14.0883C30.3047 13.8779 30.4463 13.7363 30.6566 13.7363H35.2801C35.4905 13.7363 35.6321 13.8779 35.6321 14.0883V32.8696C35.6321 33.8849 36.1579 34.4795 37.0681 34.4795C37.9782 34.4795 38.5041 33.8849 38.5041 32.8696V14.0883C38.5041 13.8779 38.6456 13.7363 38.856 13.7363H43.4835C43.6939 13.7363 43.8355 13.8779 43.8355 14.0883V34.1316C43.8355 36.9349 42.2943 38.476 39.4911 38.476H34.6572C31.854 38.476 30.3128 36.9349 30.3128 34.1316H30.3047Z" fill="#00A8A3"/>
<path d="M47.5439 37.9138V14.0883C47.5439 13.8779 47.6855 13.7363 47.8959 13.7363H56.0952C59.1452 13.7363 60.7916 15.2775 60.7916 18.0807V21.7941C60.7916 23.7924 59.9866 24.9816 58.3039 25.4387C60.2334 26.001 61.0019 27.2267 61.0019 29.2573V33.9172C61.0019 36.7205 59.3556 38.2616 56.3056 38.2616H47.8959C47.6855 38.2616 47.5439 38.1201 47.5439 37.9097V37.9138ZM55.6017 22.2148V19.2012C55.6017 18.2223 55.1123 17.7288 54.1293 17.7288H52.7985V23.6872H54.1293C55.1082 23.6872 55.6017 23.1978 55.6017 22.2148ZM55.7433 32.8008V29.0146C55.7433 28.0316 55.2539 27.5422 54.2709 27.5422H52.7985V34.2691H54.2709C55.2539 34.2691 55.7433 33.7797 55.7433 32.7967V32.8008Z" fill="#00A8A3"/>
<path d="M-0.00195312 9.93522V0.227027C-0.00195312 0.14208 0.0546743 0.0854492 0.139621 0.0854492H4.66202C4.74697 0.0854492 4.8036 0.14208 4.8036 0.227027V1.71157C4.8036 1.79652 4.74697 1.85315 4.66202 1.85315H2.16621V4.04963H3.99458C4.07953 4.04963 4.13616 4.10626 4.13616 4.1912V5.67575C4.13616 5.76069 4.07953 5.81733 3.99458 5.81733H2.16621V9.92713C2.16621 10.0121 2.10958 10.0687 2.02463 10.0687H0.139621C0.0546743 10.0687 -0.00195312 10.0121 -0.00195312 9.92713V9.93522Z" fill="white"/>
<path d="M5.96484 9.93522V0.227027C5.96484 0.14208 6.02147 0.0854492 6.10642 0.0854492H7.99143C8.07637 0.0854492 8.13301 0.14208 8.13301 0.227027V8.19179H10.4306C10.5156 8.19179 10.5722 8.24842 10.5722 8.33337V9.93117C10.5722 10.0161 10.5156 10.0727 10.4306 10.0727H6.10642C6.02147 10.0727 5.96484 10.0161 5.96484 9.93117V9.93522Z" fill="white"/>
<path d="M12.1024 9.93521V6.33914L10.1041 0.243207C10.0758 0.14208 10.1203 0.0854492 10.2174 0.0854492H12.1024C12.1873 0.0854492 12.244 0.129945 12.2601 0.214892L13.2026 3.8676H13.2876L14.2584 0.214892C14.2746 0.14208 14.3312 0.0854492 14.4162 0.0854492H16.1556C16.2567 0.0854492 16.2971 0.14208 16.2688 0.243207L14.2705 6.33914V9.93521C14.2705 10.0202 14.2139 10.0768 14.129 10.0768H12.244C12.159 10.0768 12.1024 10.0202 12.1024 9.93521Z" fill="white"/>
<path d="M17.25 9.93522V0.227027C17.25 0.14208 17.3066 0.0854492 17.3916 0.0854492H19.2766C19.3615 0.0854492 19.4182 0.14208 19.4182 0.227027V9.93117C19.4182 10.0161 19.3615 10.0727 19.2766 10.0727H17.3916C17.3066 10.0727 17.25 10.0161 17.25 9.93117V9.93522Z" fill="white"/>
<path d="M20.9639 9.93522V0.227027C20.9639 0.14208 21.0205 0.0854492 21.1054 0.0854492H23.0875C23.1725 0.0854492 23.2291 0.129945 23.2453 0.198711L24.7865 5.79306H24.8714V0.227027C24.8714 0.14208 24.928 0.0854492 25.013 0.0854492H26.6836C26.7686 0.0854492 26.8252 0.14208 26.8252 0.227027V9.93117C26.8252 10.0161 26.7686 10.0727 26.6836 10.0727H24.7581C24.6732 10.0727 24.6166 10.0161 24.6004 9.94331L23.0026 4.13457H22.9176V9.92713C22.9176 10.0121 22.861 10.0687 22.7761 10.0687H21.1054C21.0205 10.0687 20.9639 10.0121 20.9639 9.92713V9.93522Z" fill="white"/>
<path d="M28.3271 8.43399V1.77174C28.3271 0.631032 28.9541 0 30.0989 0H31.9839C33.1246 0 33.7556 0.626987 33.7556 1.77174V3.15516C33.7556 3.24011 33.699 3.29674 33.6141 3.29674H31.7857C31.7007 3.29674 31.6441 3.24011 31.6441 3.15516V2.28547C31.6441 1.87287 31.4297 1.63017 31.0576 1.63017C30.6854 1.63017 30.471 1.87287 30.471 2.28547V7.87981C30.471 8.29241 30.6854 8.53512 31.0576 8.53512C31.4297 8.53512 31.6441 8.29241 31.6441 7.87981V6.15257H31.2153C31.1304 6.15257 31.0738 6.09593 31.0738 6.01099V4.52644C31.0738 4.4415 31.1304 4.38487 31.2153 4.38487H33.6141C33.699 4.38487 33.7556 4.4415 33.7556 4.52644V9.93471C33.7556 10.0197 33.699 10.0763 33.6141 10.0763H31.8868C31.8019 10.0763 31.7452 10.0197 31.7452 9.93471V9.30773C31.3731 9.95089 30.8027 10.1653 30.0746 10.1653C28.9622 10.1653 28.3352 9.50998 28.3352 8.43803L28.3271 8.43399Z" fill="white"/>
<path d="M37.6338 9.93522V0.227027C37.6338 0.14208 37.6904 0.0854492 37.7754 0.0854492H42.2978C42.3827 0.0854492 42.4393 0.14208 42.4393 0.227027V1.71157C42.4393 1.79652 42.3827 1.85315 42.2978 1.85315H39.802V4.04963H41.6303C41.7153 4.04963 41.7719 4.10626 41.7719 4.1912V5.67575C41.7719 5.76069 41.7153 5.81733 41.6303 5.81733H39.802V9.92713C39.802 10.0121 39.7453 10.0687 39.6604 10.0687H37.7754C37.6904 10.0687 37.6338 10.0121 37.6338 9.92713V9.93522Z" fill="white"/>
<path d="M43.5996 9.93522V0.227027C43.5996 0.14208 43.6562 0.0854492 43.7412 0.0854492H45.6262C45.7111 0.0854492 45.7678 0.14208 45.7678 0.227027V8.19179H48.0654C48.1503 8.19179 48.207 8.24842 48.207 8.33337V9.93117C48.207 10.0161 48.1503 10.0727 48.0654 10.0727H43.7412C43.6562 10.0727 43.5996 10.0161 43.5996 9.93117V9.93522Z" fill="white"/>
<path d="M49.3516 9.93522V0.227027C49.3516 0.14208 49.4082 0.0854492 49.4931 0.0854492H54.0155C54.1005 0.0854492 54.1571 0.14208 54.1571 0.227027V1.71157C54.1571 1.79652 54.1005 1.85315 54.0155 1.85315H51.5197V3.96468H53.3481C53.433 3.96468 53.4897 4.02131 53.4897 4.10626V5.5908C53.4897 5.67575 53.433 5.73238 53.3481 5.73238H51.5197V8.301H54.0155C54.1005 8.301 54.1571 8.35764 54.1571 8.44258V9.92713C54.1571 10.0121 54.1005 10.0687 54.0155 10.0687H49.4931C49.4082 10.0687 49.3516 10.0121 49.3516 9.92713V9.93522Z" fill="white"/>
<path d="M55.033 9.91904L56.4893 0.214892C56.5054 0.113765 56.5459 0.0854492 56.6308 0.0854492H59.3977C59.4826 0.0854492 59.5271 0.113765 59.5392 0.214892L60.9955 9.91904C61.0116 10.004 60.951 10.0768 60.866 10.0768H59.0538C58.9689 10.0768 58.9244 10.0485 58.9123 9.94735L58.6979 8.10684H57.2133L56.9989 9.94735C56.9827 10.0485 56.9423 10.0768 56.8573 10.0768H55.1584C55.0735 10.0768 55.0168 10.004 55.029 9.91904H55.033ZM58.4835 6.33914L57.9981 2.28597H57.9131L57.4277 6.33914H58.4835Z" fill="white"/>
</svg>
